<?xml version="1.0" encoding="utf-8"?>
<!-- Generator: Adobe Illustrator 16.0.0, SVG Export Plug-In . SVG Version: 6.00 Build 0)  -->
<!DOCTYPE svg PUBLIC "-//W3C//DTD SVG 1.1//EN" "http://www.w3.org/Graphics/SVG/1.1/DTD/svg11.dtd">
<svg version="1.1" id="Layer_1" xmlns="http://www.w3.org/2000/svg" xmlns:xlink="http://www.w3.org/1999/xlink" x="0px" y="0px"
	 width="100px" height="100px" viewBox="0 0 100 100" enable-background="new 0 0 100 100" xml:space="preserve">
<g>
	<path fill="#5D5EAA" d="M73.197,40.312c-9.872,0-19.745,0.637-29.618,0.478c-1.274,0-2.707-0.16-3.981-0.16
		c-3.025-0.159-3.344-0.318-4.299-3.344c-1.274-4.618,0.159-9.554-0.796-14.013c-4.3,1.274-7.325,7.325-9.395,10.828
		c-2.866,4.777-6.529,8.121-10.669,11.783c-2.07,1.911-2.07,2.389-0.159,4.458c2.548,2.866,5.732,5.414,8.599,7.962
		c2.707,2.389,5.414,4.459,7.803,7.007c1.274,1.592,2.388,3.98,4.299,4.936c0.956-5.414,0.159-11.465-0.318-16.879
		c2.547-0.796,6.051,0.638,8.758,0.797c3.822,0.159,7.643,0,11.306,0c5.892,0,11.783,0.478,17.516,0.478
		c0.796,0,3.662,0.478,4.14-0.159c1.115-0.956-0.159-6.37-0.159-7.803c0-3.663,0.956-6.37-3.662-6.051"/>
	<g>
		<path fill="#5D5EAA" d="M73.197,37.812c-9.217,0.038-18.426,0.514-27.643,0.5c-2.449-0.003-6.958,0.942-7.844-1.689
			c-1.447-4.298-0.115-9.516-0.796-14.013c-0.189-1.251-1.912-2.206-3.075-1.746c-4.679,1.846-7.315,5.845-9.773,10.047
			c-1.907,3.26-4.033,6.148-6.676,8.854c-2.175,2.226-4.934,4.007-6.61,6.659c-2.547,4.03,5.559,9.49,7.818,11.459
			c3.036,2.646,6.152,5.211,9.096,7.961c2.269,2.119,3.421,4.775,6.025,6.563c1.226,0.843,3.449,0.059,3.672-1.493
			c0.848-5.895,0.312-11.646-0.229-17.544c-0.612,0.804-1.224,1.607-1.835,2.411c3.135-0.532,6.805,0.849,10.003,0.941
			c4.438,0.128,8.881-0.095,13.322,0.005c4.532,0.102,9.056,0.378,13.59,0.417c1.955,0.017,3.583,0.383,5.401-0.501
			c3.391-1.646,1.044-8.396,1.105-11.144c0.103-4.591-1.176-7.357-6.188-7.369c-3.225-0.007-3.224,4.993,0,5
			c2.016,0.005,1.194,2.125,1.162,3.551c-0.034,1.521,0.39,3.122,0.552,4.627c-0.295,0.924-0.071,1.26,0.673,1.007
			c-0.673-0.014-1.345-0.057-2.015-0.127c-2.779-0.236-5.624-0.136-8.414-0.244c-5.77-0.224-11.51-0.241-17.282-0.208
			c-4.473,0.026-8.807-1.53-13.238-0.778c-1.011,0.171-1.929,1.396-1.835,2.411c0.495,5.386,1.184,10.82,0.408,16.214
			c1.224-0.498,2.448-0.996,3.672-1.493c-1.794-1.233-2.353-3.083-3.793-4.545c-2.043-2.074-4.233-3.952-6.451-5.836
			c-2.159-1.833-4.286-3.712-6.399-5.599c-2.068-1.845-4.793-3.213-2.165-5.548c3.346-2.974,6.365-6.146,8.949-9.806
			c2.592-3.672,4.255-9.284,8.784-11.071c-1.025-0.582-2.05-1.164-3.075-1.746c0.825,5.454-2.302,18.534,6.365,19.115
			c11.554,0.776,23.174-0.194,34.739-0.242C76.421,42.799,76.422,37.799,73.197,37.812L73.197,37.812z"/>
	</g>
</g>
</svg>
