<?xml version="1.0" encoding="utf-8"?>
<!-- Generator: Adobe Illustrator 16.0.0, SVG Export Plug-In . SVG Version: 6.00 Build 0)  -->
<!DOCTYPE svg PUBLIC "-//W3C//DTD SVG 1.1//EN" "http://www.w3.org/Graphics/SVG/1.1/DTD/svg11.dtd">
<svg version="1.1" id="Layer_1" xmlns="http://www.w3.org/2000/svg" xmlns:xlink="http://www.w3.org/1999/xlink" x="0px" y="0px"
	 width="100px" height="100px" viewBox="0 0 100 100" enable-background="new 0 0 100 100" xml:space="preserve">
<g>
	<path fill="#5E5DA9" d="M20.979,45.068c11.901,1.082,23.802,0.618,35.703,0.309c2.164,0,3.709,0.464,4.482-1.391
		c0.772-2.009-0.773-5.564-0.928-7.728c-0.464-4.019-0.618-8.192-0.927-12.21c2.937,0.464,5.873,3.864,8.037,5.874
		c2.937,3.091,5.563,6.337,8.346,9.583c3.71,4.328,9.583,8.964,12.21,13.91c1.236,2.473-0.772,3.71-2.627,5.564
		c-2.782,2.782-5.873,5.255-8.655,8.037c-3.71,3.4-7.574,8.655-12.365,10.51c-0.927-4.173-0.309-9.119-0.309-13.292
		c0-2.318,0.463-3.091-1.546-3.709c-2.318-0.773-6.183,0-8.655,0c-2.628,0-5.255,0-7.883,0c-5.255-0.155-10.51-0.155-15.765,0
		c-3.091,0.154-8.81,0.772-9.892-2.319c-0.618-1.699-1.082-11.282,0.309-12.519"/>
	<g>
		<path fill="#5E5DA9" d="M20.979,47.568c6.605,0.554,13.209,0.706,19.835,0.664c6.057-0.039,12.853,0.556,18.822-0.399
			c3.276-0.524,4.337-3.214,4.165-6.262c-0.133-2.362-0.998-4.679-1.246-7.043c-0.364-3.481-0.495-6.989-0.745-10.479
			c-1.055,0.804-2.109,1.607-3.165,2.411c5.216,1.52,9.574,8.081,12.923,12.035c3.505,4.14,7.409,7.843,11.059,11.846
			c3.019,3.312,2.716,5.09-0.328,8.047c-2.016,1.959-4.176,3.774-6.236,5.687c-4.206,3.906-7.737,8.861-13.068,11.295
			c1.224,0.497,2.448,0.995,3.673,1.493c-0.641-3.66-0.373-7.339-0.244-11.029c0.062-1.818,0.58-4.675-0.842-6.17
			c-3.518-3.697-11.294-1.637-15.776-1.637c-7.679,0-15.325-0.086-23.001,0.151c-4.045,0.125-4.474-1.261-4.656-4.755
			c-0.09-1.741-0.542-4.984,0.527-6.473c1.884-2.625-2.456-5.118-4.317-2.523c-2.264,3.153-1.363,9.156-0.885,12.719
			c0.665,4.961,4.908,5.993,9.332,6.032c8.963,0.079,17.97-0.151,26.943-0.151c1.461,0,2.931-0.18,4.386-0.29
			c3.22-0.244,3.336,0.156,3.291,3.097c-0.065,4.185-0.303,8.214,0.422,12.359c0.303,1.728,2.341,2.102,3.673,1.493
			c6.174-2.817,10.44-8.695,15.317-13.224c3.309-3.072,12.564-8.616,9.227-14.308c-3.565-6.081-9.256-10.489-13.784-15.807
			c-4.436-5.208-9.387-12.694-16.302-14.708c-1.481-0.431-3.281,0.787-3.165,2.411c0.292,4.073,0.502,8.148,0.927,12.21
			c0.163,1.559,0.542,3.064,0.9,4.586c0.739,3.135-4.391,2.097-5.922,2.139c-10.59,0.287-21.168,0.471-31.736-0.416
			C17.764,42.298,17.79,47.3,20.979,47.568L20.979,47.568z"/>
	</g>
</g>
</svg>
